<svg class="svg-icon" style="width: 1em; height: 1em;vertical-align: middle;fill: currentColor;overflow: hidden;" viewBox="0 0 1024 1024" version="1.1" xmlns="http://www.w3.org/2000/svg"><path d="M754.631111 194.465185V77.368889A20.385185 20.385185 0 0 0 734.151111 56.888889H289.185185a20.48 20.48 0 0 0-20.48 20.48v117.096296a20.385185 20.385185 0 0 0 20.48 20.48h444.965926a20.385185 20.385185 0 0 0 20.48-20.48z m-50.062222-39.348148a7.585185 7.585185 0 0 1-7.585185 7.585185H329.576296A11.093333 11.093333 0 0 1 318.577778 151.703704v-34.986667a7.585185 7.585185 0 0 1 7.585185-7.585185h370.820741a7.585185 7.585185 0 0 1 7.585185 7.585185zM513.517037 932.314074l40.201482-45.89037 256-293.357037a26.263704 26.263704 0 0 0 6.068148-21.902223L758.518519 258.74963A25.979259 25.979259 0 0 0 732.918519 237.037037H291.081481a25.979259 25.979259 0 0 0-25.6 21.712593l-57.647407 312.32a26.358519 26.358519 0 0 0 6.068148 21.902222L478.151111 894.103704l31.288889 35.081481 3.318519 2.275556zM483.555556 542.340741a28.444444 28.444444 0 1 1 28.444444 28.444444 28.444444 28.444444 0 0 1-28.444444-28.444444z m51.958518 71.869629a75.851852 75.851852 0 1 0-47.407407 0v206.317037L277.428148 578.37037a25.694815 25.694815 0 0 1-6.068148-21.333333l33.943704-237.037037a26.074074 26.074074 0 0 1 25.694815-21.807407h362.002962a25.979259 25.979259 0 0 1 25.694815 21.807407l34.038519 237.037037a26.168889 26.168889 0 0 1-6.068148 21.333333L535.893333 820.337778z" fill="#0d91ea" /><path d="M100.598519 908.325926m9.481481 0l803.934815 0q9.481481 0 9.481481 9.481481l0 39.822223q0 9.481481-9.481481 9.481481l-803.934815 0q-9.481481 0-9.481481-9.481481l0-39.822223q0-9.481481 9.481481-9.481481Z" fill="#0097FF" /></svg>