<svg class="svg-icon" style="width: 1em; height: 1em;vertical-align: middle;fill: currentColor;overflow: hidden;" viewBox="0 0 1024 1024" version="1.1" xmlns="http://www.w3.org/2000/svg"><path d="M173.152 477.616 65.104 477.616l0-108.032L16 369.584l0 284.832 49.104 0 0-127.68 108.032 0 0 127.68 49.104 0L222.24 369.584l-49.104 0L173.136 477.616zM261.552 408.864l78.576 0 0 245.552 49.104 0L389.232 408.864l78.576 0 0-39.28L261.552 369.584 261.552 408.864zM635.536 563.648l-49.872-194.064-78.576 0 0 284.832 49.104 0L556.192 428.512l49.104 225.904 58.928 0 49.952-228.192-0.848 228.192 49.104 0L762.432 369.584l-78.576 0L635.536 563.648zM870.496 615.136 870.496 369.584l-49.104 0 0 284.832L1008 654.416l0-39.28L870.496 615.136z" fill="white" /></svg>