<svg width="453" height="453" viewBox="0 0 453 453" fill="none" xmlns="http://www.w3.org/2000/svg">
<path d="M0 226.5C0 101.408 101.408 0 226.5 0V0C351.592 0 453 101.408 453 226.5V226.5C453 351.592 351.592 453 226.5 453V453C101.408 453 0 351.592 0 226.5V226.5Z" fill="white"/>
<path fill-rule="evenodd" clip-rule="evenodd" d="M65.1973 78H249.084H301.053C301.053 78 385.001 84.2849 383.002 161.799C381.004 239.313 331.034 247.693 331.034 247.693L387 371.297H333.033L285.062 253.978H249.084V287.498C249.084 287.498 251.083 321.018 221.101 350.347C191.12 379.677 157.141 375.487 157.141 375.487C157.141 375.487 117.166 381.772 89.1826 350.347C61.1993 318.923 65.1977 293.783 65.1973 287.498C65.1968 281.213 73.9283 246.889 86.9863 224.649C102.977 197.414 111.498 185.464 131.157 163.894C146.686 146.855 160.205 135.239 174.423 124.09H96.9802L65.1973 78ZM201.114 287.498V161.799C187.789 172.352 162.94 197.414 142.952 222.554C122.964 247.693 113.168 283.308 113.168 287.498C113.168 291.688 111.169 308.448 127.159 321.018C143.15 333.587 157.141 331.492 157.141 331.492C157.141 331.492 173.131 333.587 187.122 321.018C201.114 308.448 201.114 287.498 201.114 287.498ZM293.057 209.984H249.084V121.995H293.057C293.057 121.995 319.042 126.185 327.037 140.849C335.032 155.514 333.033 163.894 333.033 163.894C333.033 163.894 331.034 186.939 325.038 195.319C313.045 212.079 293.057 209.984 293.057 209.984Z" fill="#0C416E"/>
</svg>
