<svg width="277" height="245" viewBox="0 0 277 245" fill="none" xmlns="http://www.w3.org/2000/svg">
<path fill-rule="evenodd" clip-rule="evenodd" d="M0.170981 0H158.154H202.801C202.801 0 274.924 5.15162 273.207 68.6883C271.49 132.225 228.56 139.094 228.56 139.094L276.641 240.409H230.277L189.064 144.245H158.154V171.721C158.154 171.721 159.871 199.196 134.113 223.237C108.355 247.278 79.1625 243.843 79.1625 243.843C79.1625 243.843 44.8187 248.995 20.7775 223.237C-3.26377 197.479 0.171369 176.872 0.170981 171.721C0.170594 166.569 7.67209 138.435 18.8906 120.204C32.6283 97.8808 39.9495 88.0858 56.8386 70.4055C70.1803 56.4387 81.795 46.9176 94.0099 37.7786H27.4767L0.170981 0ZM116.941 171.721V68.6883C105.493 77.3379 84.1446 97.8808 66.9724 118.487C49.8003 139.094 41.3839 168.286 41.3839 171.721C41.3839 175.155 39.6667 188.893 53.4044 199.196C67.1421 209.499 79.1625 207.782 79.1625 207.782C79.1625 207.782 92.9001 209.499 104.921 199.196C116.941 188.893 116.941 171.721 116.941 171.721ZM195.933 108.184H158.154V36.0613H195.933C195.933 36.0613 218.256 39.4958 225.125 51.5162C231.994 63.5367 230.277 70.4055 230.277 70.4055C230.277 70.4055 228.56 89.2948 223.408 96.1636C213.105 109.901 195.933 108.184 195.933 108.184Z" fill="#5D3FD3"/>
</svg>
