<svg class="svg-icon" style="width: 1em; height: 1em;vertical-align: middle;fill: currentColor;overflow: hidden;" viewBox="0 0 1024 1024" version="1.1" xmlns="http://www.w3.org/2000/svg"><path d="M853.333333 170.666667a56.888889 56.888889 0 0 1 56.888889 56.888889v568.888888a56.888889 56.888889 0 0 1-56.888889 56.888889H170.666667a56.888889 56.888889 0 0 1-56.888889-56.888889V227.555556a56.888889 56.888889 0 0 1 56.888889-56.888889h682.666666m0-56.888889H170.666667A113.777778 113.777778 0 0 0 56.888889 227.555556v568.888888a113.777778 113.777778 0 0 0 113.777778 113.777778h682.666666a113.777778 113.777778 0 0 0 113.777778-113.777778V227.555556a113.777778 113.777778 0 0 0-113.777778-113.777778z" fill="#0097FF" /><path d="M967.111111 365.321481H56.888889v56.888889h910.222222v-56.888889z" fill="#0097FF" /><path d="M224.995556 273.540741m-42.666667 0a42.666667 42.666667 0 1 0 85.333333 0 42.666667 42.666667 0 1 0-85.333333 0Z" fill="#0097FF" /><path d="M357.451852 273.540741m-42.666667 0a42.666667 42.666667 0 1 0 85.333334 0 42.666667 42.666667 0 1 0-85.333334 0Z" fill="#0097FF" /><path d="M489.908148 273.540741m-42.666667 0a42.666667 42.666667 0 1 0 85.333334 0 42.666667 42.666667 0 1 0-85.333334 0Z" fill="#0097FF" /></svg>