<svg xmlns="http://www.w3.org/2000/svg" width="256" height="256">
  <circle cx="128" cy="128" r="123.459" fill="#76C043"/>
  <path fill="#FFF8F0" d="M150.383 236.56c12.506-14.501 29.099-28.795 45.327-40.904 23.396-17.462 46.043-30.394 54.613-32.874-9.827-13.365-23.162-22.995-38.842-26.134-27.611-5.521-56.876 1.763-67.734 39.229-4.001 13.816-4.483 31.576-3.912 45.812h-.012c2.424 3.901 2.424 7.775-1.495 11.774-5.67 5.789-12.394 5.146-18.343 3.425-5.592-1.619-10.303-7.761-6.932-14.812.077-.074.167-.134.247-.209-.56-19.988-2.028-33.024-6.655-49.498-8.653-30.796-43.351-42.939-70.859-30.963-13.078 5.693-24.728 12.703-34.238 23.84 3.287 6.062 12.31 9.618 19.04 12.311 9.752 3.907 27.94 15.526 46.003 29.109 13.576 10.211 27.08 21.529 36.88 31.532 15.544 13.775 33.286 14.156 46.912-1.638zm32.999-87.167c4.264-.112 10.881 1.543 11.947 8.153.523 9.029-3.204 14.144-11.715 14.912-6.628.596-10.857-3.704-12.209-9.135-1.84-7.391 2.335-13.686 11.977-13.93zM55.124 164.239c0-7.343 3.186-13.274 11.393-13.352 6.331-.06 12.965 2.894 12.995 11.101.024 7.838-5.062 11.638-12.412 12.793-6.908-.232-11.982-4.711-11.976-10.542z"/>
  <path fill="#462D3B" d="M79.512 161.988c-.03-8.207-6.665-11.16-12.995-11.101-8.207.077-11.393 6.009-11.393 13.352-.006 5.831 5.068 10.31 11.976 10.542 7.349-1.155 12.436-4.955 12.412-12.793zM183.614 172.458c8.511-.769 12.238-5.883 11.715-14.912-1.066-6.61-7.684-8.266-11.947-8.153-9.642.244-13.816 6.539-11.977 13.931 1.352 5.43 5.581 9.73 12.209 9.134z"/>
  <path fill="#F2692B" d="M35.786 141.406c27.508-11.977 62.206.167 70.859 30.963 4.627 16.474 6.095 29.51 6.655 49.498 7.29-6.622 19.891-5.275 25.118-2.155.542.661.997 1.319 1.405 1.977h.009c-.568-14.235-.086-31.995 3.915-45.812 10.858-37.467 40.123-44.751 67.734-39.229 15.68 3.139 29.015 12.769 38.842 26.134 3.74-.972 6.765-2.907 5.3-7.225-8.478-24.922-12.751-50.119-29.795-76.949-4.154-.021-7.004-4.041-7.546-8.614-2.74-7.355-18.974-20.52-29.728-23.951-.081.191-.194.393-.26.575-3.305.083-8.743-1.715-10.237-7.105.155-.387.352-.753.521-1.134-13.316-5.333-29.938-8.841-50.435-8.275-18.092.5-33.032 2.6-45.753 6.804.012.03.027.057.039.087-1.495 5.395-6.932 7.194-10.238 7.111-.015-.042-.053-.11-.071-.155-10.683 4.004-25.656 16.883-28.3 23.988-.539 4.565-5.55 8.567-9.713 8.605-.54.852-1.09 1.655-1.62 2.537-11.053 18.302-19.463 43.106-30.665 73.748-1.906 5.211-2.787 9.41-.274 12.417 9.511-11.137 21.16-18.146 34.238-23.84z"/>
  <path fill="#462D3B" d="M113.3 221.867c-.08.075-.17.135-.247.209-3.371 7.051 1.34 13.192 6.932 14.812 5.949 1.721 12.673 2.364 18.343-3.425 3.919-3.999 3.919-7.873 1.495-11.774a18.45 18.45 0 0 0-1.405-1.977c-5.227-3.12-17.828-4.467-25.118 2.155z"/>
  <path fill="#FFF8F0" d="M44.969 22.361c-7.885.971-7.551 11.548-8.242 18.629-.875 8.921 1.626 18.974 7.093 26.949 2.645-7.105 17.617-19.984 28.301-23.989-1.638-3.975-15.508-23.027-27.152-21.589z"/>
  <path fill="#462D3B" d="M43.82 67.939c-5.467-7.975-7.968-18.027-7.093-26.949.691-7.081.357-17.658 8.242-18.629 11.644-1.438 25.514 17.614 27.152 21.589.018.045.056.113.071.155 3.306.083 8.743-1.716 10.238-7.111-.012-.03-.027-.057-.039-.087-6.554-16.38-19.09-19.475-32.585-26.934-6.587-3.639-13.788.423-18.206 6.235-11.155 14.65-8.052 45.989 2.448 60.342.018 0 .039-.006.06-.006 4.162-.038 9.173-4.04 9.712-8.605z"/>
  <g>
    <path fill="#FFF8F0" d="M211.193 22.844c7.885.971 7.552 11.548 8.242 18.629.876 8.921-1.625 18.974-7.092 26.949-2.645-7.105-17.617-19.984-28.302-23.989 1.64-3.975 15.51-23.027 27.152-21.589z"/>
    <path fill="#462D3B" d="M212.344 68.422c5.467-7.975 7.968-18.027 7.092-26.949-.69-7.081-.357-17.658-8.242-18.629-11.643-1.438-25.513 17.614-27.151 21.589-.018.045-.057.113-.07.155-3.307.083-8.744-1.716-10.238-7.111.012-.03.027-.057.039-.087 6.553-16.38 19.09-19.475 32.585-26.934 6.587-3.639 13.787.423 18.206 6.235 11.155 14.65 8.052 45.989-2.448 60.342-.018 0-.038-.006-.059-.006-4.164-.038-9.176-4.04-9.714-8.605z"/>
  </g>
</svg>
